# xmcd
#
# Track frame offsets:
#	150
#	8723
#	20102
#	30056
#	38950
#	50668
#	62887
#	73374
#	83264
#	94056
#	104693
#	117796
#	128120
#	138422
#	152005
#	163867
#	174926
#	185535
#	196346
#	209368
#
# Disc length: 2929 seconds
#
# Revision: 1
# Processed by: cddbd v1.5.2PL0 Copyright (c) Steve Scherf et al.
# Submitted via: audiograbber 1.83.01
#
DISCID=110b6f14
DTITLE=Various Artist - A Stack of Northern Soul [CD 3)
DYEAR=2014
DGENRE=Soul - Rhythm and Blues
TTITLE0=Joe Tex - The Rib
TTITLE1=Marvin Gaye - Hitch Hike
TTITLE2=Major Lance - Delilah
TTITLE3=The Tams - Disillusioned
TTITLE4=The Supremes - Your Heart Belongs To Me
TTITLE5=The Temptations - Check Yourself
TTITLE6=Carl Lester - When You See Me Hurt
TTITLE7=The Isley Brothers - Respectable
TTITLE8=The Marvelettes - Way Over There
TTITLE9=Dee Clark - Hold On
TTITLE10=Richard Berry - Have Love, Will Travel
TTITLE11=Smokey Robinson - Determination
TTITLE12=Jerry Butler - I'm A Telling You
TTITLE13=Etta James - Seven Day Fool
TTITLE14=Tiny Topsy - Just A Little Bit
TTITLE15=Ronnie Love - Chills And Fever
TTITLE16=The Pentagons - I Wonder If Your Love Will Ever Belong To Me
TTITLE17=Don McKenzie - Whose Heart Are You Gonna Break Now
TTITLE18=Mary Wells - Bye Bye Baby
TTITLE19=Marv Johnson - Come To Me
EXTD=
EXTT0=
EXTT1=
EXTT2=
EXTT3=
EXTT4=
EXTT5=
EXTT6=
EXTT7=
EXTT8=
EXTT9=
EXTT10=
EXTT11=
EXTT12=
EXTT13=
EXTT14=
EXTT15=
EXTT16=
EXTT17=
EXTT18=
EXTT19=
PLAYORDER=
